<svg viewBox="0 0 24 24" fill="none" xmlns="http://www.w3.org/2000/svg"><g id="SVGRepo_bgCarrier" stroke-width="0"></g><g id="SVGRepo_tracerCarrier" stroke-linecap="round" stroke-linejoin="round"></g><g id="SVGRepo_iconCarrier"> <path fill-rule="evenodd" clip-rule="evenodd" d="M11.9999 22.9998C18.075 22.9998 22.9999 18.0749 22.9999 11.9998C22.9999 5.92462 18.075 0.999756 11.9999 0.999756C5.92478 0.999756 0.999908 5.92462 0.999908 11.9998C0.999908 18.0749 5.92478 22.9998 11.9999 22.9998ZM3.02676 12.6047C3.08664 13.5062 3.27939 14.3715 3.5856 15.181L7.66338 15.9224L8.78323 14.8025L7.25464 11.7454L5.99999 11.118L3.02676 12.6047ZM4.83959 17.4418C5.74823 18.6355 6.94856 19.5951 8.3343 20.2144L7.30091 17.8893L4.83959 17.4418ZM10.8358 20.9183C11.2168 20.9675 11.6054 20.9929 11.9999 20.9929C12.3945 20.9929 12.7831 20.9675 13.1642 20.9182L14.8072 17.2215L13.5858 16H10.4142L9.19274 17.2215L10.8358 20.9183ZM15.6657 20.2143C17.0514 19.595 18.2516 18.6354 19.1602 17.4418L16.6991 17.8893L15.6657 20.2143ZM3.16748 10.2982L4.86962 9.44715L4.41375 7.16782C3.81434 8.10693 3.38453 9.16479 3.16748 10.2982ZM6.06786 5.24032L6.88466 9.3243L7.89442 9.82918L11 7.5V6.11803L7.35671 4.29639C6.89885 4.57295 6.46765 4.88918 6.06786 5.24032ZM9.79419 3.27906L12 4.38197L14.2057 3.27909C13.4999 3.10112 12.761 3.00659 11.9999 3.00659C11.2389 3.00659 10.5 3.10111 9.79419 3.27906ZM16.6432 4.29644L13 6.11803V7.5L16.1056 9.82918L17.1153 9.3243L17.9321 5.24044C17.5323 4.88928 17.1011 4.57302 16.6432 4.29644ZM19.5862 7.16802L19.1304 9.44715L20.8323 10.2981C20.6153 9.16481 20.1855 8.10706 19.5862 7.16802ZM20.9731 12.6046L18 11.118L16.7453 11.7454L15.2168 14.8025L16.3366 15.9224L20.4142 15.181C20.7204 14.3715 20.9132 13.5062 20.9731 12.6046ZM9.26765 11.2993L12 9.25L14.7323 11.2993L13.382 14H10.618L9.26765 11.2993Z" fill="#ffffff"></path> </g></svg>